<svg id="ePNea3wHF6V1" xmlns="http://www.w3.org/2000/svg" xmlns:xlink="http://www.w3.org/1999/xlink" viewBox="0 0 1024 1024" shape-rendering="geometricPrecision" text-rendering="geometricPrecision"><g><line x1="-18.806338" y1="0" x2="21.193662" y2="0" transform="translate(987 512)" fill="none" stroke="#3f5787" stroke-width="4"/><line x1="-18.806338" y1="0" x2="21.193662" y2="0" transform="matrix(-1 0 0-1 37 512)" fill="none" stroke="#3f5787" stroke-width="4"/><line x1="-18.806338" y1="0" x2="21.193662" y2="0" transform="matrix(-.866025 0.5-.5-.866025 100.637933 749.5)" fill="none" stroke="#3f5787" stroke-width="4"/><line x1="-18.806338" y1="0" x2="21.193662" y2="0" transform="matrix(-.5 0.866025-.866025-.5 274.5 923.362067)" fill="none" stroke="#3f5787" stroke-width="4"/><line x1="-18.806338" y1="0" x2="21.193662" y2="0" transform="matrix(0 1-1 0 512 987)" fill="none" stroke="#3f5787" stroke-width="4"/><line x1="-18.806338" y1="0" x2="21.193662" y2="0" transform="matrix(.5 0.866025-.866025 0.5 749.5 923.362067)" fill="none" stroke="#3f5787" stroke-width="4"/><line x1="-18.806338" y1="0" x2="21.193662" y2="0" transform="matrix(.866025 0.5-.5 0.866025 923.362067 749.5)" fill="none" stroke="#3f5787" stroke-width="4"/><g transform="matrix(-1 0 0-1 1024 1024)"><line x1="-18.806338" y1="0" x2="21.193662" y2="0" transform="matrix(-.866025 0.5-.5-.866025 100.637933 749.5)" fill="none" stroke="#3f5787" stroke-width="4"/><line x1="-18.806338" y1="0" x2="21.193662" y2="0" transform="matrix(-.5 0.866025-.866025-.5 274.5 923.362067)" fill="none" stroke="#3f5787" stroke-width="4"/><line x1="-18.806338" y1="0" x2="21.193662" y2="0" transform="matrix(0 1-1 0 512 987)" fill="none" stroke="#3f5787" stroke-width="4"/><line x1="-18.806338" y1="0" x2="21.193662" y2="0" transform="matrix(.5 0.866025-.866025 0.5 749.5 923.362067)" fill="none" stroke="#3f5787" stroke-width="4"/><line x1="-18.806338" y1="0" x2="21.193662" y2="0" transform="matrix(.866025 0.5-.5 0.866025 923.362067 749.5)" fill="none" stroke="#3f5787" stroke-width="4"/></g></g><g transform="matrix(.994522 0.104528-.104528 0.994522 56.323363-50.713784)"><line x1="-18.806338" y1="0" x2="1.193662" y2="0" transform="translate(996.5 512)" fill="none" stroke="#3f5787" stroke-width="3"/><line x1="-18.806338" y1="0" x2="1.193662" y2="0" transform="matrix(-1 0 0-1 27.5 512)" fill="none" stroke="#3f5787" stroke-width="3"/><line x1="-18.806338" y1="0" x2="1.193662" y2="0" transform="matrix(-.866025 0.5-.5-.866025 92.410692 754.25)" fill="none" stroke="#3f5787" stroke-width="3"/><line x1="-18.806338" y1="0" x2="1.193662" y2="0" transform="matrix(-.5 0.866025-.866025-.5 269.75 931.589308)" fill="none" stroke="#3f5787" stroke-width="3"/><line x1="-18.806338" y1="0" x2="1.193662" y2="0" transform="matrix(0 1-1 0 512 996.5)" fill="none" stroke="#3f5787" stroke-width="3"/><line x1="-18.806338" y1="0" x2="1.193662" y2="0" transform="matrix(.5 0.866025-.866025 0.5 754.25 931.589308)" fill="none" stroke="#3f5787" stroke-width="3"/><line x1="-18.806338" y1="0" x2="1.193662" y2="0" transform="matrix(.866025 0.5-.5 0.866025 931.589308 754.25)" fill="none" stroke="#3f5787" stroke-width="3"/><g transform="matrix(-1 0 0-1 1024 1024)"><line x1="-18.806338" y1="0" x2="1.193662" y2="0" transform="matrix(-.866025 0.5-.5-.866025 92.410692 754.25)" fill="none" stroke="#3f5787" stroke-width="3"/><line x1="-18.806338" y1="0" x2="1.193662" y2="0" transform="matrix(-.5 0.866025-.866025-.5 269.75 931.589308)" fill="none" stroke="#3f5787" stroke-width="3"/><line x1="-18.806338" y1="0" x2="1.193662" y2="0" transform="matrix(0 1-1 0 512 996.5)" fill="none" stroke="#3f5787" stroke-width="3"/><line x1="-18.806338" y1="0" x2="1.193662" y2="0" transform="matrix(.5 0.866025-.866025 0.5 754.25 931.589308)" fill="none" stroke="#3f5787" stroke-width="3"/><line x1="-18.806338" y1="0" x2="1.193662" y2="0" transform="matrix(.866025 0.5-.5 0.866025 931.589308 754.25)" fill="none" stroke="#3f5787" stroke-width="3"/></g></g><g transform="matrix(.913545 0.406737-.406737 0.913545 252.513887-163.984436)"><line x1="-18.806338" y1="0" x2="1.193662" y2="0" transform="translate(996.5 512)" fill="none" stroke="#3f5787" stroke-width="3"/><line x1="-18.806338" y1="0" x2="1.193662" y2="0" transform="matrix(-1 0 0-1 27.5 512)" fill="none" stroke="#3f5787" stroke-width="3"/><line x1="-18.806338" y1="0" x2="1.193662" y2="0" transform="matrix(-.866025 0.5-.5-.866025 92.410692 754.25)" fill="none" stroke="#3f5787" stroke-width="3"/><line x1="-18.806338" y1="0" x2="1.193662" y2="0" transform="matrix(-.5 0.866025-.866025-.5 269.75 931.589308)" fill="none" stroke="#3f5787" stroke-width="3"/><line x1="-18.806338" y1="0" x2="1.193662" y2="0" transform="matrix(0 1-1 0 512 996.5)" fill="none" stroke="#3f5787" stroke-width="3"/><line x1="-18.806338" y1="0" x2="1.193662" y2="0" transform="matrix(.5 0.866025-.866025 0.5 754.25 931.589308)" fill="none" stroke="#3f5787" stroke-width="3"/><line x1="-18.806338" y1="0" x2="1.193662" y2="0" transform="matrix(.866025 0.5-.5 0.866025 931.589308 754.25)" fill="none" stroke="#3f5787" stroke-width="3"/><g transform="matrix(-1 0 0-1 1024 1024)"><line x1="-18.806338" y1="0" x2="1.193662" y2="0" transform="matrix(-.866025 0.5-.5-.866025 92.410692 754.25)" fill="none" stroke="#3f5787" stroke-width="3"/><line x1="-18.806338" y1="0" x2="1.193662" y2="0" transform="matrix(-.5 0.866025-.866025-.5 269.75 931.589308)" fill="none" stroke="#3f5787" stroke-width="3"/><line x1="-18.806338" y1="0" x2="1.193662" y2="0" transform="matrix(0 1-1 0 512 996.5)" fill="none" stroke="#3f5787" stroke-width="3"/><line x1="-18.806338" y1="0" x2="1.193662" y2="0" transform="matrix(.5 0.866025-.866025 0.5 754.25 931.589308)" fill="none" stroke="#3f5787" stroke-width="3"/><line x1="-18.806338" y1="0" x2="1.193662" y2="0" transform="matrix(.866025 0.5-.5 0.866025 931.589308 754.25)" fill="none" stroke="#3f5787" stroke-width="3"/></g></g><g transform="matrix(.978148 0.207912-.207912 0.978148 117.639214-95.262357)"><line x1="-18.806338" y1="0" x2="1.193662" y2="0" transform="translate(996.5 512)" fill="none" stroke="#3f5787" stroke-width="3"/><line x1="-18.806338" y1="0" x2="1.193662" y2="0" transform="matrix(-1 0 0-1 27.5 512)" fill="none" stroke="#3f5787" stroke-width="3"/><line x1="-18.806338" y1="0" x2="1.193662" y2="0" transform="matrix(-.866025 0.5-.5-.866025 92.410692 754.25)" fill="none" stroke="#3f5787" stroke-width="3"/><line x1="-18.806338" y1="0" x2="1.193662" y2="0" transform="matrix(-.5 0.866025-.866025-.5 269.75 931.589308)" fill="none" stroke="#3f5787" stroke-width="3"/><line x1="-18.806338" y1="0" x2="1.193662" y2="0" transform="matrix(0 1-1 0 512 996.5)" fill="none" stroke="#3f5787" stroke-width="3"/><line x1="-18.806338" y1="0" x2="1.193662" y2="0" transform="matrix(.5 0.866025-.866025 0.5 754.25 931.589308)" fill="none" stroke="#3f5787" stroke-width="3"/><line x1="-18.806338" y1="0" x2="1.193662" y2="0" transform="matrix(.866025 0.5-.5 0.866025 931.589308 754.25)" fill="none" stroke="#3f5787" stroke-width="3"/><g transform="matrix(-1 0 0-1 1024 1024)"><line x1="-18.806338" y1="0" x2="1.193662" y2="0" transform="matrix(-.866025 0.5-.5-.866025 92.410692 754.25)" fill="none" stroke="#3f5787" stroke-width="3"/><line x1="-18.806338" y1="0" x2="1.193662" y2="0" transform="matrix(-.5 0.866025-.866025-.5 269.75 931.589308)" fill="none" stroke="#3f5787" stroke-width="3"/><line x1="-18.806338" y1="0" x2="1.193662" y2="0" transform="matrix(0 1-1 0 512 996.5)" fill="none" stroke="#3f5787" stroke-width="3"/><line x1="-18.806338" y1="0" x2="1.193662" y2="0" transform="matrix(.5 0.866025-.866025 0.5 754.25 931.589308)" fill="none" stroke="#3f5787" stroke-width="3"/><line x1="-18.806338" y1="0" x2="1.193662" y2="0" transform="matrix(.866025 0.5-.5 0.866025 931.589308 754.25)" fill="none" stroke="#3f5787" stroke-width="3"/></g></g><g transform="matrix(.951057 0.309017-.309017 0.951057 183.275765-133.157637)"><line x1="-18.806338" y1="0" x2="1.193662" y2="0" transform="translate(996.5 512)" fill="none" stroke="#3f5787" stroke-width="3"/><line x1="-18.806338" y1="0" x2="1.193662" y2="0" transform="matrix(-1 0 0-1 27.5 512)" fill="none" stroke="#3f5787" stroke-width="3"/><line x1="-18.806338" y1="0" x2="1.193662" y2="0" transform="matrix(-.866025 0.5-.5-.866025 92.410692 754.25)" fill="none" stroke="#3f5787" stroke-width="3"/><line x1="-18.806338" y1="0" x2="1.193662" y2="0" transform="matrix(-.5 0.866025-.866025-.5 269.75 931.589308)" fill="none" stroke="#3f5787" stroke-width="3"/><line x1="-18.806338" y1="0" x2="1.193662" y2="0" transform="matrix(0 1-1 0 512 996.5)" fill="none" stroke="#3f5787" stroke-width="3"/><line x1="-18.806338" y1="0" x2="1.193662" y2="0" transform="matrix(.5 0.866025-.866025 0.5 754.25 931.589308)" fill="none" stroke="#3f5787" stroke-width="3"/><line x1="-18.806338" y1="0" x2="1.193662" y2="0" transform="matrix(.866025 0.5-.5 0.866025 931.589308 754.25)" fill="none" stroke="#3f5787" stroke-width="3"/><g transform="matrix(-1 0 0-1 1024 1024)"><line x1="-18.806338" y1="0" x2="1.193662" y2="0" transform="matrix(-.866025 0.5-.5-.866025 92.410692 754.25)" fill="none" stroke="#3f5787" stroke-width="3"/><line x1="-18.806338" y1="0" x2="1.193662" y2="0" transform="matrix(-.5 0.866025-.866025-.5 269.75 931.589308)" fill="none" stroke="#3f5787" stroke-width="3"/><line x1="-18.806338" y1="0" x2="1.193662" y2="0" transform="matrix(0 1-1 0 512 996.5)" fill="none" stroke="#3f5787" stroke-width="3"/><line x1="-18.806338" y1="0" x2="1.193662" y2="0" transform="matrix(.5 0.866025-.866025 0.5 754.25 931.589308)" fill="none" stroke="#3f5787" stroke-width="3"/><line x1="-18.806338" y1="0" x2="1.193662" y2="0" transform="matrix(.866025 0.5-.5 0.866025 931.589308 754.25)" fill="none" stroke="#3f5787" stroke-width="3"/></g></g></svg>
